<svg xmlns="http://www.w3.org/2000/svg" viewBox="0 0 64 64"><rect width="64" height="64" fill="#f6faff"/><g fill="#5baeea"><circle cx="32.67" cy="28.43" r="0.90"/><circle cx="32.99" cy="26.54" r="0.60"/><circle cx="31.82" cy="24.95" r="0.90"/><circle cx="26.75" cy="23.82" r="0.72"/><circle cx="23.61" cy="24.64" r="1.04"/><circle cx="27.73" cy="27.93" r="1.03"/><circle cx="21.95" cy="25.05" r="0.74"/><circle cx="28.93" cy="43.78" r="0.83"/><circle cx="22.93" cy="29.83" r="0.77"/><circle cx="33.05" cy="32.50" r="0.80"/><circle cx="42.68" cy="34.22" r="1.10"/><circle cx="36.82" cy="22.01" r="0.63"/><circle cx="28.81" cy="30.93" r="0.72"/><circle cx="23.26" cy="29.59" r="1.04"/><circle cx="24.28" cy="33.36" r="0.95"/><circle cx="24.88" cy="30.10" r="0.89"/><circle cx="27.82" cy="41.79" r="0.74"/><circle cx="34.46" cy="22.21" r="1.02"/><circle cx="33.50" cy="40.43" r="1.12"/><circle cx="38.23" cy="44.18" r="0.75"/><circle cx="43.45" cy="28.23" r="0.67"/><circle cx="19.97" cy="32.01" r="0.99"/><circle cx="32.60" cy="47.83" r="0.91"/><circle cx="24.33" cy="46.30" r="0.70"/><circle cx="28.62" cy="18.40" r="1.06"/><circle cx="32.87" cy="44.33" r="0.59"/><circle cx="38.04" cy="24.37" r="0.57"/><circle cx="34.75" cy="41.76" r="0.60"/><circle cx="37.20" cy="19.85" r="0.58"/><circle cx="22.45" cy="21.04" r="0.73"/><circle cx="40.53" cy="40.82" r="0.97"/><circle cx="30.52" cy="49.42" r="0.77"/><circle cx="40.28" cy="44.67" r="1.19"/><circle cx="41.06" cy="39.05" r="0.86"/><circle cx="38.22" cy="19.56" r="0.61"/><circle cx="25.20" cy="42.57" r="0.88"/><circle cx="40.47" cy="22.21" r="0.67"/><circle cx="23.49" cy="21.09" r="1.02"/><circle cx="18.22" cy="39.31" r="0.89"/><circle cx="38.34" cy="48.66" r="0.78"/><circle cx="28.92" cy="47.99" r="1.06"/><circle cx="43.59" cy="42.71" r="0.80"/><circle cx="37.63" cy="47.79" r="0.91"/><circle cx="37.93" cy="14.24" r="0.84"/><circle cx="21.15" cy="22.51" r="1.08"/><circle cx="48.92" cy="40.26" r="0.63"/><circle cx="14.93" cy="25.88" r="0.66"/><circle cx="37.25" cy="45.01" r="1.05"/><circle cx="30.35" cy="49.98" r="1.18"/><circle cx="43.63" cy="23.25" r="0.83"/><circle cx="44.73" cy="45.85" r="1.13"/><circle cx="32.99" cy="49.71" r="0.64"/><circle cx="13.56" cy="36.81" r="0.63"/><circle cx="23.02" cy="46.11" r="0.72"/><circle cx="46.22" cy="37.54" r="1.08"/><circle cx="44.37" cy="44.05" r="1.19"/><circle cx="39.64" cy="49.59" r="1.20"/><circle cx="33.43" cy="50.24" r="1.08"/><circle cx="42.54" cy="20.51" r="0.61"/><circle cx="23.87" cy="49.15" r="1.17"/><circle cx="28.31" cy="49.59" r="0.69"/><circle cx="16.00" cy="36.29" r="1.07"/><circle cx="13.83" cy="40.97" r="0.83"/><circle cx="24.13" cy="15.69" r="1.08"/><circle cx="32.98" cy="11.16" r="0.64"/><circle cx="46.90" cy="22.81" r="1.01"/><circle cx="15.27" cy="29.98" r="0.62"/><circle cx="42.32" cy="14.80" r="1.00"/><circle cx="16.83" cy="23.48" r="0.90"/><circle cx="42.85" cy="47.37" r="0.78"/><circle cx="48.85" cy="40.82" r="0.74"/><circle cx="24.78" cy="50.64" r="0.87"/><circle cx="48.96" cy="25.89" r="1.17"/><circle cx="47.57" cy="23.54" r="0.88"/><circle cx="21.09" cy="48.69" r="0.55"/><circle cx="30.62" cy="51.41" r="0.86"/><circle cx="32.93" cy="51.82" r="0.63"/><circle cx="51.82" cy="25.45" r="0.80"/><circle cx="14.01" cy="33.25" r="0.87"/><circle cx="30.87" cy="53.92" r="0.90"/><circle cx="52.53" cy="36.25" r="1.08"/><circle cx="12.35" cy="30.47" r="0.61"/><circle cx="39.19" cy="12.40" r="0.72"/><circle cx="25.20" cy="51.05" r="1.08"/><circle cx="52.09" cy="40.45" r="0.55"/><circle cx="32.12" cy="53.80" r="0.98"/><circle cx="32.01" cy="53.08" r="1.10"/><circle cx="22.36" cy="13.46" r="0.82"/><circle cx="32.26" cy="53.31" r="0.81"/><circle cx="31.33" cy="53.23" r="1.15"/><circle cx="30.46" cy="53.95" r="0.59"/><circle cx="32.21" cy="52.45" r="0.76"/><circle cx="34.70" cy="50.97" r="0.89"/><circle cx="11.78" cy="27.97" r="0.59"/><circle cx="37.02" cy="52.68" r="0.71"/><circle cx="32.60" cy="53.31" r="0.88"/><circle cx="29.12" cy="52.23" r="0.96"/><circle cx="21.06" cy="48.46" r="0.73"/><circle cx="29.83" cy="50.45" r="0.62"/><circle cx="50.02" cy="23.13" r="0.90"/><circle cx="39.78" cy="51.07" r="1.02"/><circle cx="42.14" cy="12.76" r="0.67"/><circle cx="31.18" cy="50.99" r="1.20"/><circle cx="24.33" cy="50.26" r="0.76"/><circle cx="14.05" cy="23.73" r="1.07"/><circle cx="32.18" cy="54.18" r="1.11"/><circle cx="24.82" cy="12.36" r="0.84"/><circle cx="36.47" cy="12.26" r="0.60"/><circle cx="17.24" cy="45.43" r="0.62"/><circle cx="29.85" cy="50.87" r="0.97"/><circle cx="28.11" cy="51.30" r="1.03"/><circle cx="27.84" cy="11.91" r="0.56"/><circle cx="12.43" cy="44.39" r="0.74"/><circle cx="33.78" cy="54.53" r="0.92"/><circle cx="34.73" cy="9.28" r="1.18"/><circle cx="15.94" cy="21.49" r="0.63"/><circle cx="11.48" cy="38.49" r="1.01"/><circle cx="50.47" cy="21.96" r="1.14"/><circle cx="29.05" cy="51.39" r="1.14"/><circle cx="43.71" cy="48.88" r="0.94"/><circle cx="48.02" cy="48.27" r="0.91"/><circle cx="34.19" cy="51.45" r="1.02"/><circle cx="28.48" cy="52.79" r="0.61"/><circle cx="29.81" cy="54.85" r="0.65"/><circle cx="43.37" cy="47.58" r="0.64"/><circle cx="35.16" cy="12.03" r="0.79"/><circle cx="18.62" cy="13.55" r="0.89"/><circle cx="35.16" cy="52.99" r="0.59"/><circle cx="11.32" cy="27.92" r="1.03"/><circle cx="54.11" cy="35.39" r="0.55"/><circle cx="51.11" cy="22.66" r="0.67"/><circle cx="32.40" cy="55.29" r="1.19"/><circle cx="52.57" cy="33.35" r="0.79"/><circle cx="47.90" cy="20.22" r="0.58"/><circle cx="18.59" cy="15.92" r="0.87"/><circle cx="37.89" cy="9.68" r="1.10"/><circle cx="12.58" cy="42.55" r="0.63"/><circle cx="15.73" cy="18.19" r="1.07"/><circle cx="32.61" cy="55.13" r="0.72"/><circle cx="32.08" cy="10.58" r="0.95"/><circle cx="44.91" cy="48.70" r="0.69"/><circle cx="15.52" cy="48.13" r="0.90"/><circle cx="51.31" cy="21.71" r="0.66"/><circle cx="21.84" cy="49.40" r="0.81"/><circle cx="37.10" cy="53.36" r="0.74"/><circle cx="30.18" cy="11.10" r="1.14"/><circle cx="27.79" cy="52.24" r="0.71"/><circle cx="21.86" cy="12.21" r="1.10"/><circle cx="49.58" cy="22.00" r="0.61"/><circle cx="18.82" cy="16.63" r="1.11"/><circle cx="46.27" cy="13.47" r="0.69"/><circle cx="11.53" cy="30.99" r="0.85"/><circle cx="30.68" cy="10.67" r="0.60"/><circle cx="51.51" cy="21.95" r="0.65"/><circle cx="24.04" cy="54.41" r="0.70"/><circle cx="40.46" cy="13.81" r="1.17"/><circle cx="52.26" cy="43.66" r="0.61"/><circle cx="27.25" cy="53.03" r="0.76"/><circle cx="12.58" cy="25.57" r="0.69"/><circle cx="52.64" cy="21.28" r="0.69"/><circle cx="26.62" cy="52.85" r="0.92"/><circle cx="43.88" cy="15.04" r="0.98"/><circle cx="17.07" cy="47.09" r="0.61"/><circle cx="25.36" cy="12.17" r="1.16"/><circle cx="46.27" cy="48.94" r="0.94"/><circle cx="20.28" cy="14.89" r="0.80"/><circle cx="12.41" cy="28.54" r="1.11"/><circle cx="9.96" cy="32.76" r="0.95"/><circle cx="44.90" cy="49.70" r="0.72"/><circle cx="15.08" cy="20.25" r="0.73"/><circle cx="20.23" cy="48.10" r="0.77"/><circle cx="34.06" cy="11.62" r="1.18"/><circle cx="55.68" cy="34.31" r="0.78"/><circle cx="24.11" cy="13.79" r="1.06"/><circle cx="18.37" cy="17.13" r="0.94"/><circle cx="44.22" cy="13.87" r="0.89"/><circle cx="53.69" cy="26.02" r="0.65"/><circle cx="17.84" cy="14.00" r="0.89"/><circle cx="45.08" cy="14.94" r="1.03"/><circle cx="35.77" cy="10.83" r="0.95"/><circle cx="52.75" cy="37.35" r="0.85"/><circle cx="50.60" cy="21.93" r="1.04"/><circle cx="43.05" cy="12.70" r="0.83"/><circle cx="40.03" cy="52.00" r="0.68"/><circle cx="51.99" cy="43.46" r="0.75"/><circle cx="47.33" cy="47.78" r="1.18"/><circle cx="29.91" cy="11.74" r="0.95"/><circle cx="47.13" cy="14.12" r="0.68"/><circle cx="54.32" cy="36.83" r="0.85"/><circle cx="29.20" cy="10.13" r="0.55"/><circle cx="44.54" cy="51.63" r="0.81"/><circle cx="52.41" cy="28.77" r="0.77"/><circle cx="11.24" cy="32.59" r="0.90"/><circle cx="14.39" cy="24.09" r="1.08"/><circle cx="34.40" cy="12.70" r="1.05"/><circle cx="39.85" cy="13.78" r="1.10"/><circle cx="29.76" cy="11.17" r="0.61"/><circle cx="33.07" cy="9.92" r="0.81"/><circle cx="26.15" cy="52.70" r="0.64"/><circle cx="13.04" cy="40.73" r="0.79"/><circle cx="44.80" cy="45.96" r="1.01"/><circle cx="34.31" cy="11.95" r="0.80"/><circle cx="25.79" cy="10.29" r="1.03"/><circle cx="43.52" cy="50.05" r="0.68"/><circle cx="31.85" cy="11.76" r="0.63"/><circle cx="38.57" cy="52.43" r="1.14"/><circle cx="36.92" cy="12.30" r="0.75"/><circle cx="24.37" cy="51.85" r="0.60"/><circle cx="31.99" cy="12.44" r="1.11"/><circle cx="17.88" cy="17.84" r="0.77"/><circle cx="33.41" cy="9.59" r="1.06"/><circle cx="32.03" cy="12.28" r="1.11"/><circle cx="33.85" cy="9.41" r="0.71"/><circle cx="31.45" cy="13.62" r="0.76"/><circle cx="23.08" cy="48.48" r="0.70"/><circle cx="51.64" cy="25.45" r="0.80"/><circle cx="31.96" cy="11.87" r="0.61"/><circle cx="24.61" cy="50.40" r="0.86"/><circle cx="31.98" cy="10.56" r="0.72"/><circle cx="53.90" cy="34.48" r="1.14"/><circle cx="34.13" cy="49.98" r="0.56"/><circle cx="33.89" cy="50.97" r="0.88"/><circle cx="22.52" cy="50.48" r="0.59"/><circle cx="10.19" cy="36.55" r="0.73"/><circle cx="32.48" cy="10.80" r="0.59"/><circle cx="43.30" cy="50.18" r="0.65"/><circle cx="17.79" cy="48.57" r="0.93"/><circle cx="30.80" cy="11.38" r="1.12"/><circle cx="25.90" cy="11.28" r="0.56"/><circle cx="14.39" cy="41.66" r="0.59"/><circle cx="52.95" cy="35.66" r="0.71"/><circle cx="34.63" cy="14.40" r="0.71"/><circle cx="39.25" cy="13.97" r="0.60"/><circle cx="17.57" cy="45.71" r="1.01"/><circle cx="36.48" cy="14.73" r="0.98"/><circle cx="37.14" cy="51.03" r="0.98"/><circle cx="15.60" cy="24.65" r="0.68"/><circle cx="33.27" cy="11.88" r="1.10"/><circle cx="46.82" cy="43.53" r="1.03"/><circle cx="32.94" cy="13.94" r="0.99"/><circle cx="33.93" cy="11.34" r="0.91"/><circle cx="52.47" cy="28.42" r="0.65"/><circle cx="31.87" cy="51.01" r="0.92"/><circle cx="32.79" cy="49.57" r="1.15"/><circle cx="45.96" cy="46.56" r="0.98"/><circle cx="27.86" cy="12.77" r="0.78"/><circle cx="38.43" cy="13.78" r="0.64"/><circle cx="22.98" cy="47.49" r="1.02"/><circle cx="36.44" cy="16.33" r="0.59"/><circle cx="31.26" cy="15.88" r="0.61"/><circle cx="25.23" cy="17.14" r="0.74"/><circle cx="47.05" cy="26.16" r="0.76"/><circle cx="34.30" cy="15.11" r="1.13"/><circle cx="47.16" cy="21.96" r="0.88"/><circle cx="17.43" cy="44.54" r="0.76"/><circle cx="46.16" cy="39.67" r="1.18"/><circle cx="46.09" cy="42.86" r="0.97"/><circle cx="46.25" cy="23.66" r="0.69"/><circle cx="15.18" cy="28.32" r="0.80"/><circle cx="32.88" cy="52.12" r="0.77"/><circle cx="15.80" cy="39.04" r="1.08"/><circle cx="28.02" cy="12.23" r="1.18"/><circle cx="13.33" cy="27.83" r="1.15"/><circle cx="35.22" cy="49.82" r="0.82"/><circle cx="42.92" cy="16.39" r="0.78"/><circle cx="46.48" cy="30.06" r="0.70"/><circle cx="48.75" cy="22.01" r="1.02"/><circle cx="16.33" cy="34.70" r="0.88"/><circle cx="26.98" cy="46.43" r="0.88"/><circle cx="43.82" cy="17.32" r="0.92"/><circle cx="29.10" cy="18.59" r="0.73"/><circle cx="43.56" cy="46.57" r="0.90"/><circle cx="25.97" cy="15.40" r="1.17"/><circle cx="43.38" cy="17.64" r="0.59"/><circle cx="33.69" cy="13.37" r="0.85"/><circle cx="31.04" cy="14.98" r="1.14"/><circle cx="23.69" cy="17.64" r="0.94"/><circle cx="18.58" cy="35.68" r="0.56"/><circle cx="32.81" cy="14.14" r="0.60"/><circle cx="33.47" cy="15.20" r="0.70"/><circle cx="41.75" cy="39.85" r="1.08"/><circle cx="49.09" cy="28.29" r="0.88"/><circle cx="33.00" cy="20.09" r="1.07"/><circle cx="20.24" cy="28.90" r="0.64"/><circle cx="32.11" cy="44.72" r="0.80"/><circle cx="27.15" cy="47.32" r="0.64"/><circle cx="22.60" cy="20.04" r="0.72"/><circle cx="43.21" cy="34.08" r="0.67"/><circle cx="28.70" cy="42.47" r="0.75"/><circle cx="42.53" cy="25.64" r="0.70"/><circle cx="38.05" cy="20.07" r="1.14"/><circle cx="26.53" cy="20.09" r="0.94"/><circle cx="27.15" cy="23.39" r="0.64"/><circle cx="17.70" cy="32.04" r="0.60"/><circle cx="41.28" cy="20.67" r="0.62"/><circle cx="24.64" cy="25.23" r="0.79"/><circle cx="23.35" cy="20.91" r="0.96"/><circle cx="23.27" cy="21.52" r="1.02"/><circle cx="38.47" cy="26.31" r="0.84"/><circle cx="17.82" cy="36.07" r="0.85"/><circle cx="23.08" cy="23.79" r="0.84"/><circle cx="32.79" cy="19.51" r="1.06"/><circle cx="40.41" cy="30.49" r="0.97"/><circle cx="26.17" cy="28.80" r="1.08"/><circle cx="32.00" cy="20.23" r="0.82"/><circle cx="26.48" cy="25.35" r="0.83"/><circle cx="30.37" cy="27.77" r="1.02"/><circle cx="35.53" cy="30.95" r="1.15"/><circle cx="24.70" cy="24.13" r="0.58"/><circle cx="40.23" cy="27.30" r="1.05"/><circle cx="33.06" cy="36.18" r="0.59"/><circle cx="38.68" cy="28.34" r="0.68"/><circle cx="35.03" cy="23.20" r="0.56"/><circle cx="31.36" cy="26.68" r="0.84"/><circle cx="36.10" cy="21.79" r="1.19"/><circle cx="29.68" cy="28.27" r="0.80"/><circle cx="24.01" cy="39.85" r="0.55"/><circle cx="31.90" cy="40.17" r="1.06"/><circle cx="29.91" cy="26.49" r="0.89"/><circle cx="33.00" cy="33.19" r="1.07"/></g></svg>